G04 DipTrace 3.2.0.1*
G04 uElements22_02.GBS*
%MOIN*%
G04 #@! TF.FileFunction,Soldermask,Bot*
G04 #@! TF.Part,Single*
%AMOUTLINE19*
4,1,16,
-0.0415,-0.005451,
-0.037483,-0.023051,
-0.025939,-0.037526,
-0.009258,-0.04556,
0.009258,-0.04556,
0.025939,-0.037526,
0.037483,-0.023051,
0.0415,-0.005451,
0.0415,0.005451,
0.037483,0.023051,
0.025939,0.037526,
0.009258,0.04556,
-0.009258,0.04556,
-0.025939,0.037526,
-0.037483,0.023051,
-0.0415,0.005451,
-0.0415,-0.005451,
0*%
%AMOUTLINE22*
4,1,16,
0.0415,0.005451,
0.037483,0.023051,
0.025939,0.037526,
0.009258,0.04556,
-0.009258,0.04556,
-0.025939,0.037526,
-0.037483,0.023051,
-0.0415,0.005451,
-0.0415,-0.005451,
-0.037483,-0.023051,
-0.025939,-0.037526,
-0.009258,-0.04556,
0.009258,-0.04556,
0.025939,-0.037526,
0.037483,-0.023051,
0.0415,-0.005451,
0.0415,0.005451,
0*%
%AMOUTLINE24*
4,1,8,
0.008419,0.020325,
0.020325,0.008419,
0.020325,-0.008419,
0.008419,-0.020325,
-0.008419,-0.020325,
-0.020325,-0.008419,
-0.020325,0.008419,
-0.008419,0.020325,
0.008419,0.020325,
0*%
%AMOUTLINE25*
4,1,8,
-0.014159,-0.034184,
-0.034184,-0.014159,
-0.034184,0.014159,
-0.014159,0.034184,
0.014159,0.034184,
0.034184,0.014159,
0.034184,-0.014159,
0.014159,-0.034184,
-0.014159,-0.034184,
0*%
%AMOUTLINE27*
4,1,8,
0.024021,0.00995,
0.00995,0.024021,
-0.00995,0.024021,
-0.024021,0.00995,
-0.024021,-0.00995,
-0.00995,-0.024021,
0.00995,-0.024021,
0.024021,-0.00995,
0.024021,0.00995,
0*%
%AMOUTLINE29*
4,1,8,
0.02197,0.0091,
0.0091,0.02197,
-0.0091,0.02197,
-0.02197,0.0091,
-0.02197,-0.0091,
-0.0091,-0.02197,
0.0091,-0.02197,
0.02197,-0.0091,
0.02197,0.0091,
0*%
%ADD43O,0.055X0.074*%
%ADD44O,0.072X0.118*%
%ADD47C,0.055433*%
%ADD63C,0.067055*%
%ADD69O,0.078866X0.12611*%
%ADD71O,0.058X0.078*%
%ADD79C,0.073*%
%ADD83R,0.041X0.051307*%
%ADD109OUTLINE19*%
%ADD112OUTLINE22*%
%ADD114OUTLINE24*%
%ADD115OUTLINE25*%
%ADD117OUTLINE27*%
%ADD119OUTLINE29*%
%FSLAX26Y26*%
G04*
G70*
G90*
G75*
G01*
G04 BotMask*
%LPD*%
D83*
X4350249Y2127000D3*
Y2060535D3*
X4387751Y2061000D3*
Y2127465D3*
X4350249Y2720751D3*
Y2654286D3*
X4387751Y2654751D3*
Y2721215D3*
X4350249Y3314500D3*
Y3248035D3*
X4387751Y3248500D3*
Y3314965D3*
X4350249Y3908251D3*
Y3841786D3*
X4387751Y3842251D3*
Y3908715D3*
X4350249Y4502000D3*
Y4435535D3*
X4387751Y4436000D3*
Y4502465D3*
X750249Y2127000D3*
Y2060535D3*
X787751Y2061000D3*
Y2127465D3*
X750249Y2654751D3*
Y2721215D3*
X787751Y2720751D3*
Y2654286D3*
X750249Y3314500D3*
Y3248035D3*
X787751Y3248500D3*
Y3314965D3*
X750249Y3908251D3*
Y3841786D3*
X787751Y3842251D3*
Y3908715D3*
X750249Y4436000D3*
Y4502465D3*
X787751Y4502000D3*
Y4435535D3*
D109*
X4162251Y944000D3*
X3837251D3*
D79*
X4262251D3*
D112*
X3413251D3*
X3738251D3*
D79*
X3313251D3*
D112*
X1731000Y945105D3*
X1406000D3*
D79*
X1831000D3*
D112*
X975749D3*
X1300749D3*
D79*
X875749D3*
D112*
X3413301Y569000D3*
X3738301D3*
D79*
X3313301D3*
D112*
X4162097Y568982D3*
X3837097D3*
D79*
X4262097D3*
D112*
X1731000Y570105D3*
X1406000D3*
D79*
X1831000D3*
D112*
X975749D3*
X1300749D3*
D79*
X875749D3*
D109*
X3413251Y1319000D3*
X3738251D3*
D79*
X3313251D3*
D109*
X4162251D3*
X3837251D3*
D79*
X4262251D3*
D112*
X4363249Y569000D3*
X4688249D3*
D79*
X4263249D3*
D112*
X4363249Y944000D3*
X4688249D3*
D79*
X4263249D3*
D109*
X4363249Y1319000D3*
X4688249D3*
D79*
X4263249D3*
D109*
X1731000D3*
X1406000D3*
D79*
X1831000D3*
D109*
X975749D3*
X1300749D3*
D79*
X875749D3*
D109*
X774749Y569000D3*
X449749D3*
D79*
X874749D3*
D109*
X774749Y944000D3*
X449749D3*
D79*
X874749D3*
D112*
X774749Y1319000D3*
X449749D3*
D79*
X874749D3*
D114*
X3886485Y3210264D3*
X3836485D3*
X3886485Y3260264D3*
X3836485D3*
X3886485Y3310264D3*
X3836485D3*
X3886485Y3360264D3*
X3836485D3*
X3886485Y3410264D3*
X3836485D3*
D115*
X1268643Y3976979D3*
X1368643D3*
X1268643Y3876979D3*
X1368643D3*
X1268643Y3776979D3*
X1368643D3*
X1268643Y3676979D3*
X1368643D3*
X1268643Y3576979D3*
X1368643D3*
D117*
X2969000Y3594000D3*
X3069000D3*
X2069000D3*
X2169000D3*
D43*
X2245575Y468409D3*
X2344000D3*
X2442425D3*
D44*
X2158961Y744000D3*
X2529039D3*
D43*
X2470575Y1224409D3*
X2569000D3*
X2667425D3*
D44*
X2383961Y1500000D3*
X2754039D3*
D43*
X2470575Y1818169D3*
X2569000D3*
X2667425D3*
D44*
X2383961Y2093760D3*
X2754039D3*
D43*
X2470575Y2412160D3*
X2569000D3*
X2667425D3*
D44*
X2383961Y2687751D3*
X2754039D3*
D43*
X2470575Y4193224D3*
X2569000D3*
X2667425D3*
D44*
X2383961Y4468815D3*
X2754039D3*
D43*
X2470575Y3599472D3*
X2569000D3*
X2667425D3*
D44*
X2383961Y3875063D3*
X2754039D3*
D43*
X2470575Y3005722D3*
X2569000D3*
X2667425D3*
D44*
X2383961Y3281312D3*
X2754039D3*
D43*
X3370575Y3599660D3*
X3469000D3*
X3567425D3*
D44*
X3283961Y3875251D3*
X3654039D3*
D43*
X1570575Y2412409D3*
X1669000D3*
X1767425D3*
D44*
X1483961Y2688000D3*
X1854039D3*
D43*
X3370575Y2412160D3*
X3469000D3*
X3567425D3*
D44*
X3283961Y2687751D3*
X3654039D3*
D43*
X1570575Y3599660D3*
X1669000D3*
X1767425D3*
D44*
X1483961Y3875251D3*
X1854039D3*
D43*
X3370575Y1818409D3*
X3469000D3*
X3567425D3*
D44*
X3283961Y2094000D3*
X3654039D3*
D43*
X3370575Y3005909D3*
X3469000D3*
X3567425D3*
D44*
X3283961Y3281500D3*
X3654039D3*
D43*
X3370575Y4193409D3*
X3469000D3*
X3567425D3*
D44*
X3283961Y4469000D3*
X3654039D3*
D43*
X1570575Y1818409D3*
X1669000D3*
X1767425D3*
D44*
X1483961Y2094000D3*
X1854039D3*
D43*
X1570575Y3005909D3*
X1669000D3*
X1767425D3*
D44*
X1483961Y3281500D3*
X1854039D3*
D43*
X1570575Y4193409D3*
X1669000D3*
X1767425D3*
D44*
X1483961Y4469000D3*
X1854039D3*
D71*
X4270000Y1818000D3*
X4369000D3*
X4468000D3*
D69*
X4178055Y2094000D3*
X4559945D3*
D71*
X4270000Y2411749D3*
X4369000D3*
X4468000D3*
D69*
X4178055Y2687749D3*
X4559945D3*
D71*
X4270000Y3005500D3*
X4369000D3*
X4468000D3*
D69*
X4178055Y3281500D3*
X4559945D3*
D71*
X4270000Y3599249D3*
X4369000D3*
X4468000D3*
D69*
X4178055Y3875249D3*
X4559945D3*
D71*
X4270000Y4193000D3*
X4369000D3*
X4468000D3*
D69*
X4178055Y4469000D3*
X4559945D3*
D71*
X670000Y1818000D3*
X769000D3*
X868000D3*
D69*
X578055Y2094000D3*
X959945D3*
D71*
X670000Y2411751D3*
X769000D3*
X868000D3*
D69*
X578055Y2687751D3*
X959945D3*
D71*
X670000Y3005500D3*
X769000D3*
X868000D3*
D69*
X578055Y3281500D3*
X959945D3*
D71*
X670000Y3599251D3*
X769000D3*
X868000D3*
D69*
X578055Y3875251D3*
X959945D3*
D71*
X670000Y4193000D3*
X769000D3*
X868000D3*
D69*
X578055Y4469000D3*
X959945D3*
D119*
X3090850Y644000D3*
X2697150D3*
D47*
X2992425Y545575D3*
X2894000D3*
X2795575D3*
X2992425Y742425D3*
X2894000D3*
X2795575D3*
D63*
X3203423Y928185D3*
M02*
