M48
INCH
T01C0.013
T02C0.024
T03C0.0276
T04C0.032
T05C0.0354
T06C0.0394
T07C0.04
T08C0.047
T09C0.0472
T10C0.052
%
T10
X+041623Y+009440
X+038373Y+009440
T07
X+042623Y+009440
T10
X+034133Y+009440
X+037383Y+009440
T07
X+033133Y+009440
T10
X+017310Y+009451
X+014060Y+009451
T07
X+018310Y+009451
T10
X+009757Y+009451
X+013007Y+009451
T07
X+008757Y+009451
T10
X+034133Y+005690
X+037383Y+005690
T07
X+033133Y+005690
T10
X+041621Y+005690
X+038371Y+005690
T07
X+042621Y+005690
T10
X+017310Y+005701
X+014060Y+005701
T07
X+018310Y+005701
T10
X+009757Y+005701
X+013007Y+005701
T07
X+008757Y+005701
T10
X+034133Y+013190
X+037383Y+013190
T07
X+033133Y+013190
T10
X+041623Y+013190
X+038373Y+013190
T07
X+042623Y+013190
T10
X+043632Y+005690
X+046882Y+005690
T07
X+042632Y+005690
T10
X+043632Y+009440
X+046882Y+009440
T07
X+042632Y+009440
T10
X+043632Y+013190
X+046882Y+013190
T07
X+042632Y+013190
T10
X+017310Y+013190
X+014060Y+013190
T07
X+018310Y+013190
T10
X+009757Y+013190
X+013007Y+013190
T07
X+008757Y+013190
T10
X+007747Y+005690
X+004497Y+005690
T07
X+008747Y+005690
T10
X+007747Y+009440
X+004497Y+009440
T07
X+008747Y+009440
T10
X+007747Y+013190
X+004497Y+013190
T07
X+008747Y+013190
T02
X+038865Y+032103
X+038365Y+032103
X+038865Y+032603
X+038365Y+032603
X+038865Y+033103
X+038365Y+033103
X+038865Y+033603
X+038365Y+033603
X+038865Y+034103
X+038365Y+034103
T07
X+012686Y+039770
X+013686Y+039770
X+012686Y+038770
X+013686Y+038770
X+012686Y+037770
X+013686Y+037770
X+012686Y+036770
X+013686Y+036770
X+012686Y+035770
X+013686Y+035770
T04
X+029690Y+035940
X+030690Y+035940
X+020690Y+035940
X+021690Y+035940
T06
X+022456Y+004684
X+023440Y+004684
X+024424Y+004684
T08
X+021590Y+007240G85X+021590Y+007640
X+025290Y+007240G85X+025290Y+007640
T06
X+024706Y+012244
X+025690Y+012244
X+026674Y+012244
T08
X+023840Y+014800G85X+023840Y+015200
X+027540Y+014800G85X+027540Y+015200
T06
X+024706Y+018182
X+025690Y+018182
X+026674Y+018182
T08
X+023840Y+020738G85X+023840Y+021138
X+027540Y+020738G85X+027540Y+021138
T06
X+024706Y+024122
X+025690Y+024122
X+026674Y+024122
T08
X+023840Y+026678G85X+023840Y+027078
X+027540Y+026678G85X+027540Y+027078
T06
X+024706Y+041932
X+025690Y+041932
X+026674Y+041932
T08
X+023840Y+044488G85X+023840Y+044888
X+027540Y+044488G85X+027540Y+044888
T06
X+024706Y+035995
X+025690Y+035995
X+026674Y+035995
T08
X+023840Y+038551G85X+023840Y+038951
X+027540Y+038551G85X+027540Y+038951
T06
X+024706Y+030057
X+025690Y+030057
X+026674Y+030057
T08
X+023840Y+032613G85X+023840Y+033013
X+027540Y+032613G85X+027540Y+033013
T06
X+033706Y+035997
X+034690Y+035997
X+035674Y+035997
T08
X+032840Y+038553G85X+032840Y+038953
X+036540Y+038553G85X+036540Y+038953
T06
X+015706Y+024124
X+016690Y+024124
X+017674Y+024124
T08
X+014840Y+026680G85X+014840Y+027080
X+018540Y+026680G85X+018540Y+027080
T06
X+033706Y+024122
X+034690Y+024122
X+035674Y+024122
T08
X+032840Y+026678G85X+032840Y+027078
X+036540Y+026678G85X+036540Y+027078
T06
X+015706Y+035997
X+016690Y+035997
X+017674Y+035997
T08
X+014840Y+038553G85X+014840Y+038953
X+018540Y+038553G85X+018540Y+038953
T06
X+033706Y+018184
X+034690Y+018184
X+035674Y+018184
T08
X+032840Y+020740G85X+032840Y+021140
X+036540Y+020740G85X+036540Y+021140
T06
X+033706Y+030059
X+034690Y+030059
X+035674Y+030059
T08
X+032840Y+032615G85X+032840Y+033015
X+036540Y+032615G85X+036540Y+033015
T06
X+033706Y+041934
X+034690Y+041934
X+035674Y+041934
T08
X+032840Y+044490G85X+032840Y+044890
X+036540Y+044490G85X+036540Y+044890
T06
X+015706Y+018184
X+016690Y+018184
X+017674Y+018184
T08
X+014840Y+020740G85X+014840Y+021140
X+018540Y+020740G85X+018540Y+021140
T06
X+015706Y+030059
X+016690Y+030059
X+017674Y+030059
T08
X+014840Y+032615G85X+014840Y+033015
X+018540Y+032615G85X+018540Y+033015
T06
X+015706Y+041934
X+016690Y+041934
X+017674Y+041934
T08
X+014840Y+044490G85X+014840Y+044890
X+018540Y+044490G85X+018540Y+044890
T06
X+042700Y+018180
X+043690Y+018180
X+044680Y+018180
T09
X+041781Y+020743G85X+041781Y+021137
X+045599Y+020743G85X+045599Y+021137
T06
X+042700Y+024117
X+043690Y+024117
X+044680Y+024117
T09
X+041781Y+026681G85X+041781Y+027074
X+045599Y+026681G85X+045599Y+027074
T06
X+042700Y+030055
X+043690Y+030055
X+044680Y+030055
T09
X+041781Y+032618G85X+041781Y+033012
X+045599Y+032618G85X+045599Y+033012
T06
X+042700Y+035992
X+043690Y+035992
X+044680Y+035992
T09
X+041781Y+038556G85X+041781Y+038949
X+045599Y+038556G85X+045599Y+038949
T06
X+042700Y+041930
X+043690Y+041930
X+044680Y+041930
T09
X+041781Y+044493G85X+041781Y+044887
X+045599Y+044493G85X+045599Y+044887
T06
X+006700Y+018180
X+007690Y+018180
X+008680Y+018180
T09
X+005781Y+020743G85X+005781Y+021137
X+009599Y+020743G85X+009599Y+021137
T06
X+006700Y+024118
X+007690Y+024118
X+008680Y+024118
T09
X+005781Y+026681G85X+005781Y+027074
X+009599Y+026681G85X+009599Y+027074
T06
X+006700Y+030055
X+007690Y+030055
X+008680Y+030055
T09
X+005781Y+032618G85X+005781Y+033012
X+009599Y+032618G85X+009599Y+033012
T06
X+006700Y+035993
X+007690Y+035993
X+008680Y+035993
T09
X+005781Y+038556G85X+005781Y+038949
X+009599Y+038556G85X+009599Y+038949
T06
X+006700Y+041930
X+007690Y+041930
X+008680Y+041930
T09
X+005781Y+044493G85X+005781Y+044887
X+009599Y+044493G85X+009599Y+044887
T03
X+030909Y+006440
X+026971Y+006440
T05
X+029924Y+005456
X+028940Y+005456
X+027956Y+005456
X+029924Y+007424
X+028940Y+007424
X+027956Y+007424
T01
X+040002Y+025440
X+040002Y+025940
X+029587Y+029036
X+030017Y+028824
X+030911Y+029063
X+030527Y+028626
X+032024Y+028247
X+032237Y+027290
X+029009Y+027649
X+030854Y+025523
X+031173Y+025079
X+034159Y+027033
X+034193Y+026279
X+033506Y+025911
X+026355Y+025830
X+027169Y+025564
X+026592Y+033959
X+027590Y+033933
X+020911Y+013873
X+022138Y+013911
X+013799Y+026065
X+012799Y+024940
X+013362Y+024940
X+013799Y+025503
X+013737Y+023878
X+013424Y+024378
X+012799Y+024378
X+013737Y+023315
X+033739Y+034182
X+010226Y+016868
X+031815Y+029315
X+019627Y+019440
X+036219Y+011766
X+027815Y+031503
X+018940Y+019503
X+021252Y+032003
X+031940Y+017190
X+031940Y+016315
X+022377Y+015690
X+022127Y+031565
X+020877Y+015690
X+022690Y+026753
X+022690Y+027190
X+020440Y+031628
X+040002Y+026378
T05
X+032034Y+009282
T01
X+021128Y+027555
X+028089Y+027712
X+028467Y+030521
X+031362Y+030569
X+028706Y+022851
X+030983Y+022435
X+024142Y+023127
X+024209Y+027712
X+038235Y+022434
X+032562Y+022434
X+022652Y+027681
X+004396Y+036010
X+004396Y+041930
X+008733Y+014856
X+005012Y+014828
X+005012Y+018189
X+005372Y+010573
X+008453Y+010774
X+008639Y+007019
X+005244Y+007019
X+017968Y+014762
X+014171Y+014762
X+012861Y+018884
X+042146Y+006962
X+036599Y+006650
X+036717Y+010981
X+042161Y+011011
X+037492Y+014748
X+042072Y+014511
X+020565Y+018940
X+026437Y+032440
X+024690Y+032440
X+022456Y+011189
X+024315Y+011189
X+028069Y+018961
X+024752Y+043503
X+022065Y+043378
X+040942Y+024055
X+037565Y+019065
X+040440Y+042378
X+033706Y+043503
X+031224Y+043531
X+034002Y+037753
X+031126Y+038523
X+040751Y+029912
X+040864Y+041954
X+040723Y+035932
X+005257Y+030089
X+005012Y+024118
X+020502Y+042815
X+029627Y+042753
X+038815Y+042815
X+031440Y+042753
X+029786Y+037671
X+031427Y+037687
X+038535Y+044106
X+029368Y+044128
X+020426Y+044117
X+032065Y+043960
X+029468Y+038005
X+031803Y+037989
X+019940Y+043128
X+028815Y+043128
X+038065Y+043503
X+032127Y+043128
X+029166Y+039891
X+032065Y+039871
X+029738Y+040343
X+033422Y+040463
X+032118Y+029750
X+036957Y+030352
X+037212Y+045110
X+038810Y+045110
X+033183Y+041494
X+019390Y+041188
X+033221Y+046128
X+029627Y+046253
X+040867Y+015063
X+040253Y+015063
X+028737Y+031013
X+039117Y+031334
X+044154Y+010932
X+045014Y+010680
X+027399Y+031082
X+046371Y+031577
X+046065Y+010753
X+044027Y+014575
X+045110Y+014575
X+044699Y+016385
X+041065Y+016440
X+039523Y+030979
X+029017Y+030600
X+010288Y+014690
X+011298Y+014907
X+012793Y+014907
X+011812Y+028731
X+026597Y+028720
X+008599Y+007536
X+006707Y+007435
X+004730Y+007481
X+004852Y+029692
X+027190Y+029657
X+042227Y+007555
X+039972Y+006978
X+030216Y+029280
X+039260Y+030121
X+009241Y+010938
X+011293Y+010931
X+012675Y+010931
X+011542Y+029032
X+028747Y+029716
X+008531Y+011325
X+006744Y+010957
X+004904Y+010957
X+004613Y+029315
X+026405Y+029315
X+021446Y+046277
X+030397Y+045518
X+039571Y+046483
X+030319Y+031337
X+031883Y+032376
X+032574Y+041691
X+030436Y+041691
X+032204Y+045600
X+017928Y+015281
X+016331Y+015256
X+013392Y+015256
X+012117Y+030422
X+029200Y+031339
X+008714Y+015362
X+006761Y+015322
X+004694Y+015165
X+004694Y+028158
X+026268Y+028401
X+041026Y+011396
X+039962Y+011097
X+029560Y+029538
X+038836Y+030470
X+038757Y+011342
X+009341Y+007149
X+011358Y+006486
X+012352Y+006486
X+011561Y+030139
X+027218Y+030423
X+042964Y+007105
X+045026Y+006763
X+029943Y+029971
X+046734Y+030672
X+046343Y+006686
X+006986Y+004758
X+011029Y+004862
X+016422Y+014032
X+011029Y+014130
X+007143Y+013787
X+010969Y+008817
X+007064Y+008974
X+020440Y+014387
X+040413Y+013948
X+045011Y+014037
X+028951Y+029208
X+024987Y+028054
X+029602Y+028555
X+030018Y+025761
X+030349Y+021542
X+031106Y+021629
X+031184Y+024179
X+029964Y+024208
X+032230Y+021394
X+030739Y+021356
X+030358Y+025493
X+029925Y+028253
X+028068Y+021517
X+026882Y+021712
X+032310Y+021882
X+030203Y+021882
X+027154Y+022489
X+029431Y+022489
X+029491Y+021464
X+027678Y+021920
X+029579Y+021922
X+028010Y+022133
X+033695Y+028107
X+036751Y+028107
X+037367Y+032635
X+033406Y+028390
X+037036Y+028420
X+037720Y+033617
X+033133Y+029182
X+037459Y+029261
X+031372Y+026494
X+037260Y+025646
X+029695Y+025162
X+022768Y+025104
X+022768Y+008075
X+030823Y+007131
X+034085Y+016816
X+029858Y+016816
X+029918Y+020658
X+032202Y+020658
X+029589Y+015929
X+031476Y+015610
X+038502Y+017549
X+040159Y+017549
X+038562Y+027764
X+042414Y+027737
X+040872Y+015577
X+039293Y+015725
X+044128Y+013565
X+044709Y+016932
X+038009Y+016932
X+042872Y+015079
X+045765Y+015134
X+036607Y+004889
X+040396Y+004980
X+009311Y+007668
X+011907Y+007569
X+044629Y+004892
X+038691Y+006330
X+042895Y+007646
X+045719Y+007638
X+014377Y+008190
X+006690Y+008503
X+012971Y+019273
X+009285Y+019273
X+008474Y+008091
X+006078Y+007716
X+042215Y+008106
X+039261Y+008094
X+040031Y+012501
X+046878Y+011940
X+036390Y+012982
X+037190Y+023190
X+041117Y+023190
X+037939Y+008252
X+036064Y+008315
X+036001Y+005127
X+031219Y+009938
X+015913Y+010060
X+042156Y+011934
X+039293Y+012072
X+017913Y+008003
X+015214Y+007820
X+046878Y+012378
X+045190Y+012815
X+043008Y+011440
X+045701Y+011858
X+017913Y+007491
X+015937Y+007512
X+010690Y+010190
X+011150Y+030954
X+006862Y+030939
X+009626Y+015356
X+012025Y+015567
X+029129Y+010611
X+020618Y+010453
X+018814Y+007522
X+020840Y+007670
X+018785Y+006988
X+020487Y+007173
X+005815Y+013128
X+005565Y+016503
X+006815Y+016565
X+008733Y+015834
X+006127Y+016118
X+011326Y+012609
X+009278Y+011440
X+011962Y+011705
X+005690Y+012190
X+006752Y+012315
X+010393Y+012787
X+008680Y+011892
X+006117Y+011853
X+013149Y+012193
X+016054Y+012390
X+017895Y+015817
X+015325Y+015817
X+024332Y+009215
X+041502Y+017503
X+039542Y+035321
X+028940Y+035878
X+029002Y+038065
X+030440Y+038753
X+030021Y+038625
X+017378Y+037753
X+041211Y+024977
X+041081Y+035058
X+028502Y+035878
X+028502Y+039565
X+030690Y+039565
X+016128Y+041378
X+031082Y+041994
X+030127Y+040157
X+035486Y+040091
X+043630Y+042559
X+039565Y+044190
X+040451Y+030536
X+030734Y+042437
X+030210Y+040886
X+035150Y+040741
X+030903Y+027690
X+036287Y+028747
X+036315Y+037003
X+022002Y+036878
X+028252Y+042315
X+028190Y+044628
X+029877Y+044628
X+010716Y+017504
X+011581Y+040862
X+039877Y+042201
X+039499Y+036873
X+015248Y+025486
X+019689Y+026994
X+030252Y+044440
X+023315Y+044128
X+023315Y+034753
X+016628Y+034753
X+026088Y+043498
X+030627Y+043373
X+010456Y+023418
X+011330Y+042656
X+021002Y+042315
X+021190Y+045503
X+025627Y+045503
X+025940Y+040253
X+028690Y+040315
X+028627Y+044877
X+030690Y+044753
X+021815Y+045190
X+025252Y+045315
X+020815Y+046378
X+019253Y+046378
X+034690Y+037252
X+021940Y+037503
X+034190Y+045378
X+029940Y+045253
X+026440Y+046378
X+030627Y+046378
X+022656Y+045977
X+031015Y+045862
X+024874Y+044903
X+029452Y+045207
X+010252Y+030607
X+010989Y+046565
X+020849Y+045169
X+010735Y+035348
X+010509Y+046315
X+021440Y+044907
X+021702Y+044602
X+010197Y+046003
X+010174Y+041341
X+030471Y+027692
X+035910Y+028958
X+036127Y+036565
X+030992Y+036380
X+015256Y+021993
X+021240Y+021140
X+044252Y+020503
X+043083Y+022906
X+043852Y+025326
X+043376Y+021688
X+044377Y+032628
X+044377Y+038440
X+043786Y+022988
X+044377Y+025940
X+044542Y+029396
X+045631Y+029419
X+042940Y+045003
X+045190Y+021815
X+044146Y+019502
X+042877Y+039065
X+043878Y+033565
X+030396Y+032411
X+032380Y+020109
X+036190Y+019844
X+030021Y+032379
X+024024Y+031740
X+023935Y+008358
X+016505Y+010972
X+014626Y+010972
X+014589Y+022869
X+011998Y+022543
X+045253Y+023282
X+046084Y+023282
X+046235Y+035131
X+045301Y+035131
X+046198Y+041079
X+045286Y+041048
X+046450Y+017469
X+014626Y+016958
X+009374Y+040993
X+010399Y+040939
X+010399Y+034975
X+009260Y+035097
X+009375Y+024090
X+010308Y+024090
X+012034Y+023934
X+038190Y+018029
X+015018Y+011626
X+018730Y+011626
X+042161Y+039576
X+038847Y+039658
X+040096Y+033602
X+042476Y+033334
X+040315Y+021831
X+041898Y+021922
X+041854Y+018339
X+014918Y+017477
X+006241Y+021921
X+005315Y+021921
X+004784Y+033741
X+006065Y+033753
X+004921Y+039698
X+006000Y+039779
X+005436Y+024748
X+012424Y+024725
X+009398Y+021948
X+008145Y+019414
X+007240Y+022339
X+010054Y+021762
X+012065Y+021253
X+008315Y+038378
X+008315Y+032628
X+008379Y+026375
X+008315Y+020440
X+008254Y+045373
X+044377Y+027190
X+044377Y+044315
X+007065Y+021315
X+008254Y+027250
X+007502Y+033690
X+043262Y+040145
X+041609Y+039916
X+045918Y+042073
X+006690Y+038190
X+007004Y+044186
T00
M30
